<svg xmlns="http://www.w3.org/2000/svg" viewBox="0 0 512 512"><path d="M381.178 138.151v235.697c0 56.227-46.006 102.243-102.243 102.243h-45.871c-56.237 0-102.243-46.016-102.243-102.243V138.151c0-56.237 46.006-102.243 102.243-102.243h45.871c56.238.001 102.243 46.006 102.243 102.243z" fill="#ee8700"/><g fill="#ffa733"><path d="M262.031 476.091h-28.967c-56.237 0-102.243-46.016-102.243-102.243V138.151c0-56.237 46.006-102.243 102.243-102.243h28.967c-56.237 0-102.243 46.006-102.243 102.243v235.697c.001 56.227 46.006 102.243 102.243 102.243z"/><path d="M381.178 138.151v235.697c0 56.227-46.006 102.243-102.243 102.243h-27.932c56.237 0 102.243-46.016 102.243-102.243V138.151c0-56.237-46.006-102.243-102.243-102.243h27.932c56.238.001 102.243 46.006 102.243 102.243z"/></g><path d="M347.877 308.88c0 26.722-15.663 26.722-15.663 53.454 0 10.749 11.183 59.33-27.446 109.991l-2.907 3.807-27.239 16.553V20.939l27.239 17.246 1.024 1.262c23.37 28.894 33.54 65.962 29.629 102.926-3.321 31.481 15.363 31.098 15.363 59.61 0 26.722-15.663 26.722-15.663 53.444 0 26.731 15.663 26.731 15.663 53.453z" fill="#5eac24"/><path d="M327.186 308.88c0 26.722-15.663 26.722-15.663 53.454 0 10.749 11.183 59.33-27.446 109.991l-2.907 3.807-6.549 3.983V34.036l6.549 4.148 1.024 1.262c23.37 28.894 33.54 65.962 29.629 102.926-3.321 31.481 15.363 31.098 15.363 59.61 0 26.722-15.663 26.722-15.663 53.444 0 26.732 15.663 26.732 15.663 53.454z" fill="#6dc82a"/><path d="M233.24 24.043v463.47l-19.853-11.38-2.897-3.807c-38.64-50.661-27.446-99.284-27.446-109.991 0-26.732-15.673-26.732-15.673-53.454s15.673-26.722 15.673-53.454c0-26.722-15.673-26.722-15.673-53.444 0-28.698 18.715-27.87 15.363-59.61-3.911-36.964 6.259-74.031 29.629-102.926l1.024-1.262c.001 0 7.439-12.073 19.853-14.142z" fill="#5eac24"/><path d="M233.24 40.523v433.148l-1.024-1.345c-38.64-50.661-27.446-99.284-27.446-109.991 0-26.732-15.673-26.732-15.673-53.454s15.673-26.722 15.673-53.454c0-26.722-15.673-26.722-15.673-53.444 0-28.698 18.715-27.87 15.363-59.61-3.859-36.509 6.01-73.121 28.78-101.85z" fill="#6dc82a"/><path d="M301.147 43.75v424.5c0 18.746-11.939 34.833-28.594 41.019A43.173 43.173 0 0 1 257.397 512h-2.793c-24.063 0-43.75-19.687-43.75-43.75V43.75c0-24.063 19.687-43.75 43.75-43.75h2.793c5.318 0 10.428.962 15.156 2.731 16.655 6.187 28.594 22.274 28.594 41.019z" fill="#c70024"/><path d="M301.147 43.75v424.5c0 18.746-11.939 34.833-28.594 41.019-16.656-6.187-28.594-22.273-28.594-41.019V43.75c0-18.746 11.938-34.833 28.594-41.019 16.655 6.187 28.594 22.274 28.594 41.019z" fill="#ff0c38"/><path d="M243.687 483.846a7.759 7.759 0 0 1-7.759-7.759c0-13.698 8.773-20.827 15.179-26.032 6.207-5.044 9.447-7.958 9.447-13.989s-3.239-8.945-9.447-13.989c-6.406-5.205-15.179-12.334-15.179-26.032 0-13.697 8.773-20.826 15.18-26.031 6.207-5.043 9.446-7.956 9.446-13.986s-3.239-8.944-9.446-13.988c-6.406-5.204-15.179-12.333-15.179-26.03 0-13.697 8.773-20.825 15.179-26.03 6.207-5.043 9.446-7.956 9.446-13.986s-3.239-8.943-9.446-13.986c-6.406-5.205-15.179-12.333-15.179-26.03 0-13.695 8.773-20.823 15.18-26.027 6.207-5.042 9.446-7.955 9.446-13.984s-3.239-8.942-9.446-13.985c-6.406-5.205-15.18-12.333-15.18-26.03s8.773-20.825 15.179-26.03c6.207-5.043 9.446-7.955 9.446-13.986 0-6.029-3.239-8.942-9.446-13.986-6.406-5.205-15.179-12.333-15.179-26.03 0-13.696 8.773-20.824 15.18-26.029 6.207-5.042 9.446-7.955 9.446-13.985 0-4.286 3.474-7.759 7.759-7.759s7.759 3.473 7.759 7.759c0 13.696-8.773 20.824-15.18 26.029-6.207 5.042-9.446 7.955-9.446 13.985 0 6.03 3.239 8.942 9.446 13.986 6.406 5.205 15.179 12.333 15.179 26.03s-8.773 20.825-15.179 26.03c-6.207 5.043-9.446 7.955-9.446 13.986 0 6.031 3.239 8.942 9.446 13.986 6.406 5.205 15.179 12.333 15.179 26.029s-8.773 20.824-15.18 26.028c-6.207 5.042-9.446 7.953-9.446 13.983s3.239 8.942 9.446 13.986c6.406 5.205 15.179 12.333 15.179 26.03 0 13.697-8.773 20.825-15.179 26.03-6.207 5.043-9.446 7.956-9.446 13.986s3.239 8.944 9.446 13.987c6.406 5.205 15.179 12.334 15.179 26.031 0 13.696-8.773 20.825-15.179 26.03-6.207 5.043-9.446 7.956-9.446 13.987s3.239 8.945 9.447 13.989c6.406 5.205 15.179 12.334 15.179 26.032s-8.773 20.827-15.179 26.032c-6.207 5.044-9.447 7.958-9.447 13.989a7.759 7.759 0 0 1-7.759 7.759z" fill="#ffda44"/></svg>